<svg id="Layer_1" data-name="Layer 1" xmlns="http://www.w3.org/2000/svg" viewBox="0 0 141.73 141.73"><defs><style>.cls-1{fill:none;stroke:#1d1d1b;stroke-linecap:round;stroke-linejoin:round;stroke-width:3px;}</style></defs><title>Icons</title><path class="cls-1" d="M39.28,96.7H92.9a16.18,16.18,0,0,0,10.5-13.5c.09-.44,1.33-7.47-3.94-12.38A13.82,13.82,0,0,0,88.4,67.45,22.8,22.8,0,0,0,67,45.14a21.81,21.81,0,0,0-15.57,4.5c-8.21,6.59-7.92,16.72-7.87,17.81l.84-6.86a15.15,15.15,0,0,0-10.22,2.73,15.37,15.37,0,0,0-6,10.32,19.12,19.12,0,0,0,0,11.25C30.8,93,38.12,96.21,39.28,96.7Z"/><path class="cls-1" d="M103.69,79.83a16.26,16.26,0,0,0,6.56-4.5,16.47,16.47,0,0,0,3.94-9c.08-.43,1.33-7.47-3.94-12.37a13.84,13.84,0,0,0-11.06-3.38A22.8,22.8,0,0,0,77.81,28.27a21.79,21.79,0,0,0-15.56,4.5,21.46,21.46,0,0,0-7.58,13.51"/></svg>