<svg id="Layer_1" data-name="Layer 1" xmlns="http://www.w3.org/2000/svg" viewBox="0 0 141.73 141.73"><defs><style>.cls-1,.cls-2{fill:none;stroke:#1d1d1b;stroke-miterlimit:10;stroke-width:3px;}.cls-2{stroke-linecap:round;}</style></defs><title>Icons</title><circle class="cls-1" cx="70.87" cy="70.87" r="15.37"/><circle class="cls-1" cx="70.87" cy="70.87" r="15.37"/><circle class="cls-1" cx="70.87" cy="70.87" r="15.37"/><line class="cls-2" x1="70.87" y1="27.74" x2="70.87" y2="49.12"/><line class="cls-2" x1="33.52" y1="49.3" x2="52.03" y2="59.99"/><line class="cls-2" x1="33.52" y1="92.43" x2="52.03" y2="81.74"/><line class="cls-2" x1="70.87" y1="113.99" x2="70.87" y2="92.62"/><line class="cls-2" x1="87.38" y1="99.47" x2="81.74" y2="89.7"/><line class="cls-2" x1="103.89" y1="70.87" x2="92.62" y2="70.87"/><line class="cls-2" x1="87.38" y1="42.27" x2="81.74" y2="52.03"/><line class="cls-2" x1="54.35" y1="42.27" x2="59.99" y2="52.03"/><line class="cls-2" x1="37.84" y1="70.87" x2="49.12" y2="70.87"/><line class="cls-2" x1="54.35" y1="99.47" x2="59.99" y2="89.7"/><line class="cls-2" x1="108.21" y1="92.43" x2="89.7" y2="81.74"/><line class="cls-2" x1="108.21" y1="49.3" x2="89.7" y2="59.99"/><line class="cls-2" x1="33.52" y1="49.3" x2="52.03" y2="59.99"/><line class="cls-2" x1="33.52" y1="92.43" x2="52.03" y2="81.74"/></svg>