<svg id="Layer_1" data-name="Layer 1" xmlns="http://www.w3.org/2000/svg" viewBox="0 0 141.73 141.73"><defs><style>.cls-1,.cls-2,.cls-3{fill:none;stroke:#1d1d1b;stroke-width:3px;}.cls-1,.cls-2{stroke-miterlimit:10;}.cls-2,.cls-3{stroke-linecap:round;}.cls-3{stroke-linejoin:round;}</style></defs><title>Icons</title><path class="cls-1" d="M69.76,60.88a15.38,15.38,0,0,1,29.69,5.61"/><path class="cls-1" d="M84.08,51.12A15.37,15.37,0,0,1,99.45,66.49"/><path class="cls-1" d="M91.76,79.81A16.41,16.41,0,0,1,90,80.7"/><path class="cls-1" d="M69.76,60.88a15.38,15.38,0,1,1,22,18.93"/><line class="cls-2" x1="84.08" y1="23.37" x2="84.08" y2="44.74"/><line class="cls-2" x1="46.73" y1="44.93" x2="65.24" y2="55.62"/><line class="cls-2" x1="117.1" y1="66.49" x2="105.83" y2="66.49"/><line class="cls-2" x1="100.59" y1="37.9" x2="94.95" y2="47.66"/><line class="cls-2" x1="67.56" y1="37.9" x2="73.2" y2="47.66"/><line class="cls-2" x1="121.42" y1="88.06" x2="102.91" y2="77.37"/><line class="cls-2" x1="121.42" y1="44.93" x2="102.91" y2="55.62"/><path class="cls-3" d="M90,80.69a14.26,14.26,0,0,0-4.42-.11A22.8,22.8,0,0,0,64.17,58.27a21.79,21.79,0,0,0-15.56,4.5c-8.21,6.6-7.92,16.72-7.87,17.81l.84-6.85a15.08,15.08,0,0,0-10.22,2.73,15.25,15.25,0,0,0-6,10.31,19,19,0,0,0,0,11.25c2.58,8.1,9.9,11.32,11.06,11.81H90.05a16.26,16.26,0,0,0,6.56-4.5,16.47,16.47,0,0,0,3.94-9c.08-.44,1.32-7.47-3.94-12.37A13,13,0,0,0,90,80.69"/></svg>