<svg id="Layer_1" data-name="Layer 1" xmlns="http://www.w3.org/2000/svg" viewBox="0 0 141.73 141.73"><defs><style>.cls-1{fill:none;stroke:#1d1d1b;stroke-linecap:round;stroke-linejoin:round;stroke-width:3px;}</style></defs><title>Icons</title><path class="cls-1" d="M39.61,76.75A15.08,15.08,0,0,1,49.83,74h0a22.16,22.16,0,0,1,2.23-5.37,32.14,32.14,0,0,1-.56-5.93A31.59,31.59,0,0,1,59.22,42,31.74,31.74,0,0,0,34.47,83.6,14.73,14.73,0,0,1,39.61,76.75Z"/><path class="cls-1" d="M44.67,110.13H98.3a16.37,16.37,0,0,0,6.56-4.5,16.58,16.58,0,0,0,3.94-9c.08-.44,1.32-7.47-3.94-12.38A13.82,13.82,0,0,0,93.8,80.88,22.82,22.82,0,0,0,72.42,58.57a21.79,21.79,0,0,0-15.56,4.5C48.64,69.66,48.93,79.79,49,80.88c.28-2.29.57-4.57.85-6.86a15.08,15.08,0,0,0-10.22,2.73,15.29,15.29,0,0,0-6,10.32,19,19,0,0,0,0,11.25C36.19,106.41,43.51,109.64,44.67,110.13Z"/></svg>