<?xml version="1.0" encoding="utf-8"?>
<!-- Generator: Adobe Illustrator 26.5.0, SVG Export Plug-In . SVG Version: 6.00 Build 0)  -->
<svg version="1.1" xmlns="http://www.w3.org/2000/svg" xmlns:xlink="http://www.w3.org/1999/xlink" x="0px" y="0px"
	 viewBox="0 0 688 540" style="enable-background:new 0 0 688 540;" xml:space="preserve">
<style type="text/css">
	.st0{display:none;}
	.st1{opacity:0.8;}
	.st2{fill:#FFDD17;}
	.st3{fill:none;stroke:#FFDD17;stroke-width:10;stroke-linecap:round;stroke-miterlimit:10;}
	.st4{fill:#F2BB16;}
	.st5{opacity:0.8;fill:#369AD8;}
	.st6{opacity:0.8;fill:#A6E4F1;}
</style>
<g id="colors" class="st0">
</g>
<g id="sun">
	<g class="st1">
		<circle class="st2" cx="194.5" cy="253.5" r="72.5"/>
		<g>
			<path class="st2" d="M194.5,186c37.22,0,67.5,30.28,67.5,67.5S231.72,321,194.5,321S127,290.72,127,253.5S157.28,186,194.5,186
				 M194.5,176c-42.8,0-77.5,34.7-77.5,77.5s34.7,77.5,77.5,77.5s77.5-34.7,77.5-77.5S237.3,176,194.5,176L194.5,176z"/>
		</g>
	</g>
	<g class="st1">
		<line class="st3" x1="194.53" y1="120" x2="194.53" y2="157.04"/>
	</g>
	<g class="st1">
		<line class="st3" x1="100.14" y1="159.1" x2="126.32" y2="185.29"/>
		<line class="st2" x1="100.14" y1="159.1" x2="126.32" y2="185.29"/>
	</g>
	<g class="st1">
		<line class="st3" x1="61.03" y1="253.5" x2="98.07" y2="253.5"/>
		<line class="st2" x1="61.03" y1="253.5" x2="98.07" y2="253.5"/>
	</g>
	<g class="st1">
		<line class="st3" x1="100.14" y1="347.9" x2="126.32" y2="321.71"/>
		<line class="st2" x1="100.14" y1="347.9" x2="126.32" y2="321.71"/>
	</g>
	<g class="st1">
		<line class="st3" x1="194.53" y1="387" x2="194.53" y2="349.96"/>
		<line class="st2" x1="194.53" y1="387" x2="194.53" y2="349.96"/>
	</g>
	<g class="st1">
		<line class="st3" x1="289.36" y1="346.61" x2="263.18" y2="320.42"/>
		<line class="st2" x1="289.36" y1="346.61" x2="263.18" y2="320.42"/>
	</g>
	<g class="st1">
		<line class="st3" x1="328.47" y1="252.21" x2="291.43" y2="252.21"/>
		<line class="st2" x1="328.47" y1="252.21" x2="291.43" y2="252.21"/>
	</g>
	<g class="st1">
		<line class="st3" x1="289.36" y1="157.81" x2="263.18" y2="184"/>
		<line class="st2" x1="289.36" y1="157.81" x2="263.18" y2="184"/>
	</g>
	<g>
		<g>
			<path class="st4" d="M189.5,185c-35.07,0-63.5,28.43-63.5,63.5s28.43,63.5,63.5,63.5s63.5-28.43,63.5-63.5S224.57,185,189.5,185z
				 M185,299c-30.38,0-55-24.62-55-55s24.62-55,55-55s55,24.62,55,55S215.38,299,185,299z"/>
		</g>
	</g>
</g>
<g id="Sun_and_clouds">
</g>
</svg>
