<svg id="Layer_1" data-name="Layer 1" xmlns="http://www.w3.org/2000/svg" viewBox="0 0 141.73 141.73"><defs><style>.cls-1,.cls-2,.cls-3{fill:none;stroke:#1d1d1b;stroke-width:3px;}.cls-1,.cls-2{stroke-miterlimit:10;}.cls-2,.cls-3{stroke-linecap:round;}.cls-3{stroke-linejoin:round;}</style></defs><title>Icons</title><path class="cls-1" d="M69.86,54.22a15.38,15.38,0,0,1,29.69,5.62"/><path class="cls-1" d="M84.18,44.46A15.38,15.38,0,0,1,99.55,59.84"/><path class="cls-1" d="M91.86,73.16a16.35,16.35,0,0,1-1.78.88"/><path class="cls-1" d="M69.86,54.22a15.38,15.38,0,1,1,22,18.94"/><line class="cls-2" x1="84.18" y1="16.71" x2="84.18" y2="38.09"/><line class="cls-2" x1="46.83" y1="38.28" x2="65.34" y2="48.96"/><line class="cls-2" x1="117.2" y1="59.84" x2="105.93" y2="59.84"/><line class="cls-2" x1="100.69" y1="31.24" x2="95.05" y2="41"/><line class="cls-2" x1="67.66" y1="31.24" x2="73.3" y2="41"/><line class="cls-2" x1="121.52" y1="81.4" x2="103.01" y2="70.71"/><line class="cls-2" x1="121.52" y1="38.28" x2="103.01" y2="48.96"/><path class="cls-3" d="M90.07,74a14.6,14.6,0,0,0-4.42-.11A22.8,22.8,0,0,0,64.27,51.61a21.79,21.79,0,0,0-15.56,4.5c-8.21,6.6-7.92,16.73-7.87,17.81l.84-6.85A15.08,15.08,0,0,0,31.46,69.8a15.27,15.27,0,0,0-6,10.31,19,19,0,0,0,0,11.25c2.58,8.1,9.9,11.33,11.06,11.81H90.15a16.16,16.16,0,0,0,6.56-4.5,16.47,16.47,0,0,0,3.94-9c.08-.43,1.32-7.47-3.94-12.37A13.05,13.05,0,0,0,90.07,74"/><line class="cls-3" x1="47.43" y1="105.72" x2="47.43" y2="114.22"/><line class="cls-3" x1="76.09" y1="105.72" x2="76.09" y2="114.22"/><line class="cls-3" x1="66.99" y1="105.72" x2="66.99" y2="114.22"/><line class="cls-3" x1="57.73" y1="105.72" x2="57.73" y2="114.22"/></svg>