<svg id="Layer_1" data-name="Layer 1" xmlns="http://www.w3.org/2000/svg" viewBox="0 0 141.73 141.73"><defs><style>.cls-1{fill:none;stroke:#1d1d1b;stroke-linecap:round;stroke-linejoin:round;stroke-width:3px;}</style></defs><title>Icons</title><path class="cls-1" d="M46.49,96.7h53.62a16.18,16.18,0,0,0,10.5-13.5c.09-.44,1.33-7.47-3.94-12.38a13.82,13.82,0,0,0-11.06-3.37A22.8,22.8,0,0,0,74.24,45.14a21.81,21.81,0,0,0-15.57,4.5c-8.21,6.59-7.92,16.72-7.87,17.81l.84-6.86a15.14,15.14,0,0,0-10.22,2.73,15.33,15.33,0,0,0-6,10.32,19,19,0,0,0,0,11.25C38,93,45.33,96.21,46.49,96.7Z"/></svg>