<svg id="Layer_1" data-name="Layer 1" xmlns="http://www.w3.org/2000/svg" viewBox="0 0 141.73 141.73"><defs><style>.cls-1{fill:none;stroke:#1d1d1b;stroke-linecap:round;stroke-linejoin:round;stroke-width:3px;}</style></defs><title>Icons</title><path class="cls-1" d="M44.67,93.08H98.3a16.37,16.37,0,0,0,6.56-4.5,16.6,16.6,0,0,0,3.94-9c.08-.44,1.32-7.48-3.94-12.38A13.82,13.82,0,0,0,93.8,63.83,22.82,22.82,0,0,0,72.42,41.51,21.84,21.84,0,0,0,56.86,46c-8.22,6.6-7.93,16.73-7.88,17.82.28-2.29.57-4.57.85-6.86A15.08,15.08,0,0,0,39.61,59.7a15.29,15.29,0,0,0-6,10.31,19,19,0,0,0,0,11.25C36.19,89.36,43.51,92.59,44.67,93.08Z"/><line class="cls-1" x1="55.17" y1="94.96" x2="55.17" y2="103.46"/><line class="cls-1" x1="83.83" y1="94.96" x2="83.83" y2="103.46"/><line class="cls-1" x1="74.73" y1="94.96" x2="74.73" y2="103.46"/><line class="cls-1" x1="65.47" y1="94.96" x2="65.47" y2="103.46"/></svg>