<svg id="Layer_1" data-name="Layer 1" xmlns="http://www.w3.org/2000/svg" viewBox="0 0 141.73 141.73"><defs><style>.cls-1{fill:none;stroke:#1d1d1b;stroke-linecap:round;stroke-linejoin:round;stroke-width:3px;}</style></defs><title>Icons</title><polygon class="cls-1" points="58.28 59.23 58.28 73.76 70.87 81.03 83.45 73.76 83.45 59.23 70.87 51.96 58.28 59.23"/><line class="cls-1" x1="70.87" y1="51.96" x2="70.87" y2="23.49"/><line class="cls-1" x1="58.28" y1="26.49" x2="70.87" y2="40.72"/><line class="cls-1" x1="83.45" y1="26.49" x2="70.87" y2="40.72"/><line class="cls-1" x1="58.28" y1="59.23" x2="33.62" y2="44.99"/><line class="cls-1" x1="29.92" y1="57.39" x2="48.55" y2="53.61"/><line class="cls-1" x1="42.51" y1="35.59" x2="48.55" y2="53.61"/><line class="cls-1" x1="58.28" y1="73.76" x2="33.62" y2="88"/><line class="cls-1" x1="42.51" y1="97.4" x2="48.55" y2="79.38"/><line class="cls-1" x1="29.92" y1="75.6" x2="48.55" y2="79.38"/><line class="cls-1" x1="70.87" y1="81.03" x2="70.87" y2="109.5"/><line class="cls-1" x1="83.45" y1="106.5" x2="70.87" y2="92.27"/><line class="cls-1" x1="58.28" y1="106.5" x2="70.87" y2="92.27"/><line class="cls-1" x1="83.45" y1="73.76" x2="108.11" y2="88"/><line class="cls-1" x1="111.81" y1="75.6" x2="93.18" y2="79.38"/><line class="cls-1" x1="99.22" y1="97.4" x2="93.18" y2="79.38"/><line class="cls-1" x1="83.45" y1="59.23" x2="108.11" y2="44.99"/><line class="cls-1" x1="99.22" y1="35.59" x2="93.18" y2="53.61"/><line class="cls-1" x1="111.81" y1="57.39" x2="93.18" y2="53.61"/></svg>