<svg id="Layer_1" data-name="Layer 1" xmlns="http://www.w3.org/2000/svg" viewBox="0 0 141.73 141.73"><defs><style>.cls-1{fill:none;stroke:#1d1d1b;stroke-linecap:round;stroke-linejoin:round;stroke-width:3px;}</style></defs><title>Icons</title><path class="cls-1" d="M50.06,89.42h53.63a16.26,16.26,0,0,0,6.56-4.5,16.47,16.47,0,0,0,3.94-9c.08-.43,1.33-7.47-3.94-12.37a13.84,13.84,0,0,0-11.06-3.38A22.8,22.8,0,0,0,77.81,37.86a21.79,21.79,0,0,0-15.56,4.5C54,49,54.33,59.09,54.38,60.17l.84-6.85A15.08,15.08,0,0,0,45,56.05a15.27,15.27,0,0,0-6,10.31,19,19,0,0,0,0,11.25C41.58,85.71,48.9,88.93,50.06,89.42Z"/><polygon class="cls-1" points="72.1 89.42 76.26 89.42 81.75 89.42 77.95 99.76 76.92 102.58 81.75 102.58 72.1 121.87 72.1 105.65 65.96 105.65 69.65 95.9 72.1 89.42"/></svg>